<?xml version="1.0" encoding="UTF-8" standalone="no"?>
<!-- Created with Inkscape (http://www.inkscape.org/) -->

<svg
   version="1.1"
   id="svg255"
   xml:space="preserve"
   width="755.90533"
   height="755.90533"
   viewBox="0 0 755.90533 755.90533"
   sodipodi:docname="EMOFRAME.svg"
   inkscape:version="1.1 (c68e22c387, 2021-05-23)"
   xmlns:inkscape="http://www.inkscape.org/namespaces/inkscape"
   xmlns:sodipodi="http://sodipodi.sourceforge.net/DTD/sodipodi-0.dtd"
   xmlns="http://www.w3.org/2000/svg"
   xmlns:svg="http://www.w3.org/2000/svg"><defs
     id="defs259"><clipPath
       clipPathUnits="userSpaceOnUse"
       id="clipPath269"><path
         d="M 0,566.929 H 566.929 V 0 H 0 Z"
         id="path267" /></clipPath></defs><sodipodi:namedview
     id="namedview257"
     pagecolor="#ffffff"
     bordercolor="#666666"
     borderopacity="1.0"
     inkscape:pageshadow="2"
     inkscape:pageopacity="0.0"
     inkscape:pagecheckerboard="0"
     showgrid="false"
     inkscape:zoom="0.68791683"
     inkscape:cx="377.22584"
     inkscape:cy="390.30881"
     inkscape:window-width="1366"
     inkscape:window-height="705"
     inkscape:window-x="-8"
     inkscape:window-y="-8"
     inkscape:window-maximized="1"
     inkscape:current-layer="g261" /><g
     id="g261"
     inkscape:groupmode="layer"
     inkscape:label="EMOFRAME"
     transform="matrix(1.3333333,0,0,-1.3333333,0,755.90533)"><g
       id="g263"><g
         id="g265"
         clip-path="url(#clipPath269)"><g
           id="g271"
           transform="translate(230.125,283.4648)"><path
             d="m 0,0 h -78.835 c -24.033,0 -43.516,19.482 -43.516,43.516 v 78.834 c 0,24.033 19.483,43.516 43.516,43.516 H 0 c 24.033,0 43.516,-19.483 43.516,-43.516 V 43.516 C 43.516,19.482 24.033,0 0,0"
             style="fill:#fdc300;fill-opacity:1;fill-rule:nonzero;stroke:none"
             id="path273" /></g><g
           id="g275"
           transform="translate(161.9277,383.6406)"><path
             d="m 0,0 c 0,-6.698 -3.221,-12.127 -7.195,-12.127 -3.973,0 -7.195,5.429 -7.195,12.127 0,6.698 3.222,12.127 7.195,12.127 C -3.221,12.127 0,6.698 0,0"
             style="fill:#3b3735;fill-opacity:1;fill-rule:nonzero;stroke:none"
             id="path277" /></g><g
           id="g279"
           transform="translate(233.877,383.6406)"><path
             d="m 0,0 c 0,-6.698 -3.221,-12.127 -7.195,-12.127 -3.973,0 -7.195,5.429 -7.195,12.127 0,6.698 3.222,12.127 7.195,12.127 C -3.221,12.127 0,6.698 0,0"
             style="fill:#3b3735;fill-opacity:1;fill-rule:nonzero;stroke:none"
             id="path281" /></g><g
           id="g283"
           transform="translate(215.4062,356.1323)"><path
             d="m 0,0 c 6.514,0 10.737,-6.852 7.837,-12.685 -5.468,-10.997 -17.828,-18.669 -32.2,-18.669 -14.372,0 -26.732,7.672 -32.2,18.669 C -59.463,-6.852 -55.24,0 -48.726,0 Z"
             style="fill:#3b3735;fill-opacity:1;fill-rule:nonzero;stroke:none"
             id="path285" /></g><g
           id="g287"
           transform="translate(229.6245,111.0551)"><path
             d="m 0,0 h -77.834 c -24.31,0 -44.016,19.706 -44.016,44.016 v 77.834 c 0,24.309 19.706,44.016 44.016,44.016 H 0 c 24.309,0 44.016,-19.707 44.016,-44.016 V 44.016 C 44.016,19.706 24.309,0 0,0"
             style="fill:#0481c0;fill-opacity:1;fill-rule:nonzero;stroke:none"
             id="path289" /></g><g
           id="g291"
           transform="translate(148.7729,198.3569)"><path
             d="m 0,0 c 0,5.146 4.172,9.317 9.317,9.317 5.146,0 9.317,-4.171 9.317,-9.317 0,-5.146 -4.171,-9.316 -9.317,-9.316 C 4.172,-9.316 0,-5.146 0,0"
             style="fill:#3b3735;fill-opacity:1;fill-rule:nonzero;stroke:none"
             id="path293" /></g><g
           id="g295"
           transform="translate(214.0073,198.3569)"><path
             d="m 0,0 c 0,5.146 4.171,9.317 9.317,9.317 5.146,0 9.317,-4.171 9.317,-9.317 0,-5.146 -4.171,-9.316 -9.317,-9.316 C 4.171,-9.316 0,-5.146 0,0"
             style="fill:#3b3735;fill-opacity:1;fill-rule:nonzero;stroke:none"
             id="path297" /></g><g
           id="g299"
           transform="translate(243.2817,165.5258)"><path
             d="m 0,0 h -105.148 c -1.226,0 -2.219,0.993 -2.219,2.218 0,1.225 0.993,2.219 2.219,2.219 L 0,4.437 C 1.226,4.437 2.219,3.443 2.219,2.218 2.219,0.993 1.226,0 0,0"
             style="fill:#3b3735;fill-opacity:1;fill-rule:nonzero;stroke:none"
             id="path301" /></g><g
           id="g303"
           transform="translate(402.4131,283.4648)"><path
             d="m 0,0 h -78.834 c -24.033,0 -43.516,19.482 -43.516,43.516 v 78.834 c 0,24.033 19.483,43.516 43.516,43.516 H 0 c 24.033,0 43.516,-19.483 43.516,-43.516 V 43.516 C 43.516,19.482 24.033,0 0,0"
             style="fill:#ee7700;fill-opacity:1;fill-rule:nonzero;stroke:none"
             id="path305" /></g><g
           id="g307"
           transform="translate(387.418,330.1928)"><path
             d="M 0,0 C 1.354,-0.496 2.722,0.646 2.518,2.074 0.821,13.982 -10.594,23.19 -24.423,23.19 c -13.825,0 -25.237,-9.202 -26.938,-21.105 -0.204,-1.432 1.168,-2.574 2.524,-2.072 l 13.031,4.814 c 7.262,2.683 15.242,2.696 22.512,0.036 z"
             style="fill:#3b3735;fill-opacity:1;fill-rule:nonzero;stroke:none"
             id="path309" /></g><g
           id="g311"
           transform="translate(340.9844,375.7543)"><path
             d="m 0,0 c 0,-5.167 -2.486,-9.356 -5.552,-9.356 -3.065,0 -5.551,4.189 -5.551,9.356 0,5.168 2.486,9.357 5.551,9.357 C -2.486,9.357 0,5.168 0,0"
             style="fill:#3b3735;fill-opacity:1;fill-rule:nonzero;stroke:none"
             id="path313" /></g><g
           id="g315"
           transform="translate(396.4961,375.7543)"><path
             d="m 0,0 c 0,-5.167 -2.485,-9.356 -5.552,-9.356 -3.065,0 -5.551,4.189 -5.551,9.356 0,5.168 2.486,9.357 5.551,9.357 C -2.485,9.357 0,5.168 0,0"
             style="fill:#3b3735;fill-opacity:1;fill-rule:nonzero;stroke:none"
             id="path317" /></g><g
           id="g319"
           transform="translate(341.7275,382.5478)"><path
             d="m 0,0 c -3.338,2.549 -11.225,7.239 -24.077,7.261 -0.654,10e-4 -1.282,0.306 -1.645,0.85 -0.667,1.001 -1.254,2.687 1.001,4.002 0,0 6.288,3.716 13.719,0.858 0,0 8.204,-4.102 11.505,-9.364 C 0.648,3.374 0.748,3.117 0.812,2.85 L 1.284,0.838 C 1.46,0.092 0.609,-0.465 0,0"
             style="fill:#3b3735;fill-opacity:1;fill-rule:nonzero;stroke:none"
             id="path321" /></g><g
           id="g323"
           transform="translate(384.2646,382.5478)"><path
             d="m 0,0 c 3.338,2.549 11.225,7.239 24.078,7.261 0.653,10e-4 1.281,0.306 1.644,0.85 0.667,1.001 1.254,2.687 -1.001,4.002 0,0 -6.288,3.716 -13.719,0.858 0,0 -8.204,-4.102 -11.505,-9.364 C -0.648,3.374 -0.748,3.117 -0.812,2.85 L -1.284,0.838 C -1.46,0.092 -0.609,-0.465 0,0"
             style="fill:#3b3735;fill-opacity:1;fill-rule:nonzero;stroke:none"
             id="path325" /></g></g></g></g></svg>
